<?xml version="1.0" encoding="utf-8"?>
<svg version="1.1" xmlns:xlink="http://www.w3.org/1999/xlink" width="904px" height="90px" xmlns="http://www.w3.org/2000/svg">
  <defs>
    <linearGradient gradientUnits="userSpaceOnUse" x1="447" y1="80" x2="447" y2="0" id="LinearGradient95">
      <stop id="Stop96" stop-color="#1acdfd" stop-opacity="0.149019607843137" offset="0" />
      <stop id="Stop97" stop-color="#1acdfd" stop-opacity="0" offset="1" />
    </linearGradient>
    <filter x="508px" y="4px" width="904px" height="90px" filterUnits="userSpaceOnUse" id="filter98">
      <feOffset dx="0" dy="0" in="SourceAlpha" result="shadowOffsetInner" />
      <feGaussianBlur stdDeviation="2.5" in="shadowOffsetInner" result="shadowGaussian" />
      <feComposite in2="shadowGaussian" operator="atop" in="SourceAlpha" result="shadowComposite" />
      <feColorMatrix type="matrix" values="0 0 0 0 0.101960784313725  0 0 0 0 0.803921568627451  0 0 0 0 0.992156862745098  0 0 0 1 0  " in="shadowComposite" />
    </filter>
    <g id="widget99">
      <path d="M 769.631091541619 79  L 748.562726455445 79  L 145.433202563623 79  L 124.368908458381 79  C 124.368908458381 79  109.547331956728 81.1906149077113  101.051941033601 76.5861649142225  C 71.6132492288758 60.6305737571888  56.3455991579356 26.9605578982083  36.6314980793854 9.84461538461539  C 28.7541985434652 3.00548001232795  0.45224071702944 0  0.45224071702944 0  L 91.6616245436741 0  L 802.33837545659 0  L 893.547759282971 0  C 893.547759282971 0  865.245801456535 3.00548001232795  857.368501920615 9.84461538461539  C 837.654400842064 26.9605578982083  822.386750771124 60.6305737571888  792.948058966399 76.5861649142225  C 784.452668043272 81.1906149077113  769.631091541619 79  769.631091541619 79  Z " fill-rule="nonzero" fill="url(#LinearGradient95)" stroke="none" transform="matrix(1 0 0 1 513 9 )" />
    </g>
  </defs>
  <g transform="matrix(1 0 0 1 -508 -4 )">
    <use xlink:href="#widget99" filter="url(#filter98)" />
    <use xlink:href="#widget99" />
  </g>
</svg>